# xmcd CD database file
#
# Track frame offsets:
#	150
#	14357
#	30735
#	48047
#	73392
#	88607
#	106208
#	122785
#	139863
#	157341
#	173496
#	191827
#
# Disc length: 2709 seconds
#
# Revision: 0
# Processed by: cddbd v1.5.2PL0 Copyright (c) Steve Scherf et al.
# Submitted via: CDex 1.70beta2
#
DISCID=a50a930c
DTITLE=Rag-And-Bone - Novice Pioneer
DYEAR=2009
DGENRE=Country
TTITLE0=Novice Pioneer
TTITLE1=Man With No Reflection
TTITLE2=No Footing At All
TTITLE3=Say You Hate Me
TTITLE4=My Shortcoming
TTITLE5=The Strench of a Ditch
TTITLE6=Sleep
TTITLE7=A Hundred Years of Thirst
TTITLE8=Reconsideration Boogie
TTITLE9=Broken Glass
TTITLE10=With the Right Eyes
TTITLE11=Lunar Hop
EXTD=YEAR: 2009
EXTT0=
EXTT1=
EXTT2=
EXTT3=
EXTT4=
EXTT5=
EXTT6=
EXTT7=
EXTT8=
EXTT9=
EXTT10=
EXTT11=
PLAYORDER=
